<?xml version="1.0" encoding="UTF-8" standalone="no"?>
<svg
   xmlns:dc="http://purl.org/dc/elements/1.1/"
   xmlns:cc="http://creativecommons.org/ns#"
   xmlns:rdf="http://www.w3.org/1999/02/22-rdf-syntax-ns#"
   xmlns:svg="http://www.w3.org/2000/svg"
   xmlns="http://www.w3.org/2000/svg"
   xmlns:sodipodi="http://sodipodi.sourceforge.net/DTD/sodipodi-0.dtd"
   xmlns:inkscape="http://www.inkscape.org/namespaces/inkscape"
   version="1.1"
   id="svg2"
   xml:space="preserve"
   width="666.66669"
   height="666.66669"
   viewBox="0 0 666.66669 666.66669"
   sodipodi:docname="shutterstock_400447180.eps"><metadata
     id="metadata8"><rdf:RDF><cc:Work
         rdf:about=""><dc:format>image/svg+xml</dc:format><dc:type
           rdf:resource="http://purl.org/dc/dcmitype/StillImage" /></cc:Work></rdf:RDF></metadata><defs
     id="defs6" /><sodipodi:namedview
     pagecolor="#ffffff"
     bordercolor="#666666"
     borderopacity="1"
     objecttolerance="10"
     gridtolerance="10"
     guidetolerance="10"
     inkscape:pageopacity="0"
     inkscape:pageshadow="2"
     inkscape:window-width="640"
     inkscape:window-height="480"
     id="namedview4" /><g
     id="g10"
     inkscape:groupmode="layer"
     inkscape:label="ink_ext_XXXXXX"
     transform="matrix(1.3333333,0,0,-1.3333333,0,666.66667)"><g
       id="g12"
       transform="scale(0.1)"><path
         d="M 5000,0 H 0 V 5000 H 5000 V 0"
         style="fill:#f2f1f0;fill-opacity:1;fill-rule:nonzero;stroke:none"
         id="path14" /><path
         d="m 2284.63,1863.22 h -127.4 l -260.89,-209.45 v 209.45 h -268.56 c -138.75,0 -251.66,113.04 -251.66,251.81 v 1187.86 c 0,138.93 112.91,251.83 251.66,251.83 h 1188.01 c 138.83,0 251.73,-112.9 251.73,-251.83 v -233.5 h 192.06 v 233.5 c 0,245.15 -198.71,443.88 -443.79,443.88 H 1627.78 C 1382.76,3746.77 1184,3548.04 1184,3302.89 V 2115.03 c 0,-245.17 198.76,-443.85 443.78,-443.85 h 76.5 v -75.63 -342.32 l 267.3,214.6 253.21,203.35 h 95.81 c -22.96,51.82 -35.97,109.02 -35.97,169.26 v 22.78"
         style="fill:#3f4141;fill-opacity:1;fill-rule:nonzero;stroke:none"
         id="path16" /><path
         d="m 2025.89,2973 c -34.57,24.87 -74.56,42.15 -121.02,42.15 -63.75,0 -102.66,-25.94 -127.5,-51.86 -3.24,18.36 -4.33,37.8 -4.33,59.42 0,126.42 59.44,219.35 124.26,218.27 79.97,0 130.75,-101.58 130.75,-225.83 0,-15.14 -1.08,-29.18 -2.16,-42.15 z m -121.02,-170.72 c -25.93,0 -50.79,11.88 -72.39,35.65 15.12,43.22 36.73,78.89 72.39,78.89 36.74,0 49.7,-36.75 57.27,-90.77 -17.29,-15.13 -36.74,-23.77 -57.27,-23.77 z m -6.49,596.46 c -217.19,0 -363.06,-155.6 -363.06,-376.03 0,-255.01 151.28,-382.51 369.55,-382.51 29.18,0 58.34,2.16 84.28,6.48 23.78,-63.75 78.88,-119.94 167.48,-119.94 108.06,0 162.09,76.71 162.09,172.89 v 55.11 h -71.32 v -31.35 c 0,-18.36 -2.16,-48.62 -21.61,-48.62 -27.01,0 -38.9,36.74 -47.54,70.24 59.43,64.83 89.68,156.68 89.68,270.14 0,230.15 -114.54,383.59 -369.55,383.59"
         style="fill:#3f4141;fill-opacity:1;fill-rule:nonzero;stroke:none"
         id="path18" /><path
         d="m 3039.05,2216.64 h 127.04 l -64.01,209.48 z"
         style="fill:#3f4141;fill-opacity:1;fill-rule:nonzero;stroke:none"
         id="path20" /><path
         d="m 3519.1,1907.3 h -388.88 v 127.04 h 92.12 l -20.37,65.95 h -198.79 l -20.37,-65.95 h 75.63 V 1907.3 h -308.38 v 127.04 H 2816 l 130.92,425.74 h -39.77 v 125.1 h 372.41 l 171.65,-550.84 h 67.89 z m -5.55,1044.8 h -809.36 c -166.91,0 -302.28,-135.38 -302.28,-302.37 v -809.29 c 0,-167.1 135.37,-302.45 302.28,-302.45 h 402.68 l 172.59,-138.58 182.03,-146.18 v 233.27 51.49 h 52.06 c 167.02,0 302.45,135.35 302.45,302.45 v 809.29 c 0,166.99 -135.43,302.37 -302.45,302.37"
         style="fill:#3f4141;fill-opacity:1;fill-rule:nonzero;stroke:none"
         id="path22" /></g></g></svg>
